<svg width="24" height="24" viewBox="0 0 24 24" fill="none" xmlns="http://www.w3.org/2000/svg">
<path d="M14.2344 7.60938L13.6094 8.23438C13.4844 8.39062 13.4844 8.60938 13.6406 8.76562L16.1406 11.1719H5.39062C5.17188 11.1719 5.01562 11.3594 5.01562 11.5469V12.4219C5.01562 12.6406 5.17188 12.7969 5.39062 12.7969H16.1406L13.6406 15.2344C13.4844 15.3906 13.4844 15.6094 13.6094 15.7656L14.2344 16.3906C14.3906 16.5156 14.6094 16.5156 14.7656 16.3906L18.8906 12.2656C19.0156 12.1094 19.0156 11.8906 18.8906 11.7344L14.7656 7.60938C14.6094 7.48438 14.3906 7.48438 14.2344 7.60938Z" fill="#333333"/>
</svg>
